<?xml version="1.0" encoding="utf-8"?>
<!-- Generator: Adobe Illustrator 24.1.0, SVG Export Plug-In . SVG Version: 6.00 Build 0)  -->
<svg version="1.1" id="Layer_1" xmlns="http://www.w3.org/2000/svg" xmlns:xlink="http://www.w3.org/1999/xlink" x="0px" y="0px"
	 viewBox="0 0 152.3 37.8" style="enable-background:new 0 0 152.3 37.8;" xml:space="preserve">
<style type="text/css">
	.st0{fill:#FFFFFF;}
	.st1{clip-path:url(#SVGID_2_);}
	.st2{clip-path:url(#SVGID_4_);}
	.st3{clip-path:url(#SVGID_6_);}
	.st4{clip-path:url(#SVGID_8_);}
</style>
<g id="Layer_2_1_">
	<g id="_01_-_Hero">
		<path class="st0" d="M58.5,30.4h5.1V19.8c0-3.2-0.3-5.7-1.8-7.6c-1.3-1.7-3.3-2.7-5.4-2.6c-2.5,0-4.8,1.2-6.3,3.2l-0.4,0.6
			l-0.3-1.9c-0.1-0.8-0.9-1.5-1.7-1.5h-2.8v20.4h5.1V16.7v-0.1c1-1.7,2.8-2.8,4.8-2.8c1.3-0.1,2.5,0.5,3.1,1.6
			c0.6,1.5,0.8,3.1,0.7,4.6L58.5,30.4z"/>
		<path class="st0" d="M76.8,9.6C71,9.4,66.2,14,66.1,19.8c0,0.2,0,0.3,0,0.5c0.2,5.9,5.1,10.6,11,10.4c5.7-0.2,10.2-4.7,10.4-10.4
			C87.6,14.5,83,9.7,77.3,9.6C77.1,9.5,77,9.5,76.8,9.6 M76.8,26.7c-3.2,0-5.6-2.7-5.6-6.4s2.3-6.4,5.6-6.4s5.5,2.7,5.5,6.4
			S80,26.7,76.8,26.7"/>
		<path class="st0" d="M100.5,9.6C94.8,9.4,90,14,89.8,19.8c0,0.2,0,0.3,0,0.5c-0.1,5.8,4.5,10.6,10.2,10.7c0.2,0,0.3,0,0.5,0
			c5.7,0.2,10.5-4.3,10.7-10.1c0-0.1,0-0.2,0-0.3V1.1h-3.6c-0.8,0-1.5,0.7-1.5,1.5c0,0,0,0,0,0v6l-0.1,2.3l-0.4-0.2
			C104,9.9,102.3,9.5,100.5,9.6 M100.5,26.7c-3.2,0-5.5-2.7-5.5-6.4s2.3-6.4,5.5-6.4c3.2,0,5.5,2.7,5.5,6.4S103.7,26.7,100.5,26.7"
			/>
		<path class="st0" d="M124.7,9.6c-5.8-0.1-10.6,4.4-10.7,10.2c0,0.2,0,0.3,0,0.5c-0.1,5.8,4.5,10.6,10.2,10.7c0.2,0,0.3,0,0.5,0
			c5.8,0.1,10.6-4.4,10.7-10.2c0-0.2,0-0.3,0-0.5c0.1-5.8-4.4-10.5-10.2-10.7C125,9.5,124.9,9.5,124.7,9.6 M124.7,26.7
			c-3.2,0-5.6-2.7-5.6-6.4s2.3-6.4,5.6-6.4s5.5,2.7,5.5,6.4S127.9,26.7,124.7,26.7"/>
		<path class="st0" d="M136.6,27.6c2.1,2.1,5,3.3,8,3.3c3.9,0,7.8-2,7.8-6.5c0-3.7-3.1-5-5.9-6.1l-0.1,0c-1.7-0.7-3.5-1.4-3.5-3
			c0.1-1.1,1.1-2,2.2-1.9c0,0,0.1,0,0.1,0c1.1,0,2.1,0.3,3,0.8c0.7,0.4,1.6,0.2,2.2-0.3l1.7-1.8c-1.9-1.7-4.3-2.5-6.8-2.5
			c-3.5,0-7.2,1.9-7.2,6.1c0,3.4,2.5,4.8,5.1,5.9l0.7,0.3c1.9,0.8,3.5,1.5,3.5,3s-1.5,2.2-2.9,2.2c-1.4,0-2.7-0.5-3.8-1.3
			c-0.7-0.5-1.7-0.4-2.3,0.2L136.6,27.6z"/>
		<path class="st0" d="M21.9,3.4c0,1.7-1.3,3-3,3s-3-1.3-3-3s1.3-3,3-3S21.9,1.8,21.9,3.4"/>
		<path class="st0" d="M15.8,34.4c0-1.7,1.3-3,3-3s3,1.3,3,3s-1.3,3-3,3S15.8,36.1,15.8,34.4"/>
		<path class="st0" d="M25,11.1c0.1-0.1,0.1-0.1,0.2-0.2l7.1-7c0.9-0.8,1-2.3,0.2-3.2c-0.8-0.9-2.3-1-3.2-0.2
			c-0.1,0.1-0.1,0.1-0.2,0.2l-9.7,9.6l0,0C19.4,10.4,22.2,14,25,11.1"/>
		<path class="st0" d="M21,12.6l-0.4-0.2l-0.1-0.1c-0.2-0.1-0.3-0.2-0.5-0.3l-0.2-0.1l-0.1-0.1c-0.3-0.3-0.6-0.6-0.9-0.9l-0.1-0.1
			l-5-5c-0.9-0.9-2.3-0.9-3.2,0s-0.9,2.3,0,3.2c0,0,0,0,0,0l5.1,5.1c1.9,1.8,4.8,1.7,6.7-0.1l1.2-1.2C23.3,13,23,13,22.7,13
			C22.1,13,21.5,12.8,21,12.6"/>
		<path class="st0" d="M25,11.1c0.1-0.1,0.1-0.1,0.2-0.2l7.1-7c0.9-0.8,1-2.3,0.2-3.2c-0.8-0.9-2.3-1-3.2-0.2
			c-0.1,0.1-0.1,0.1-0.2,0.2l-9.7,9.6l0,0C19.4,10.4,22.2,14,25,11.1"/>
		<path class="st0" d="M25.4,20.9l0.2-0.4l0.1-0.1c0.1-0.2,0.2-0.3,0.3-0.5l0.1-0.2l0.1-0.1c0.3-0.3,0.6-0.6,0.9-0.9l0.1-0.1l5-5
			c0.9-0.9,0.9-2.3,0-3.2c-0.9-0.9-2.3-0.9-3.2,0l-5.1,5.1c-1.8,1.9-1.8,4.9,0.1,6.7l1.2,1.2C25,23.2,25,22.9,25,22.6
			C25,22,25.1,21.4,25.4,20.9"/>
		<path class="st0" d="M26.8,24.9l0.2,0.2l7,7.1c0.9,0.9,2.3,0.9,3.2,0.1c0.9-0.9,0.9-2.3,0.1-3.2c0,0,0,0,0,0l-9.7-9.7l0,0
			C27.6,19.2,24,22,26.8,24.9"/>
		<path class="st0" d="M19.9,11.9L20,12L19.9,11.9"/>
		<path class="st0" d="M19.7,11.8c-0.3-0.2-0.5-0.5-0.7-0.7l-0.2-0.2l0.1,0.1C19.1,11.2,19.4,11.5,19.7,11.8"/>
		<path class="st0" d="M20.5,12.4l0.1,0.1L20.5,12.4"/>
		<path class="st0" d="M34.4,22.1c-1.7,0-3-1.3-3-3s1.3-3,3-3s3,1.3,3,3S36,22.1,34.4,22.1"/>
		<path class="st0" d="M3.4,15.9c1.7,0,3,1.3,3,3c0,1.7-1.3,3-3,3s-3-1.3-3-3c0,0,0,0,0,0C0.4,17.2,1.7,15.9,3.4,15.9"/>
		<path class="st0" d="M16.8,25.4l0.4,0.2c0,0,0.1,0,0.1,0.1c0.2,0.1,0.3,0.2,0.5,0.3l0.2,0.1l0.1,0.1c0.3,0.3,0.6,0.6,0.9,0.9
			l0.1,0.1l5,5c0.9,0.9,2.3,0.9,3.2,0c0.9-0.9,0.9-2.3,0-3.2c0,0,0,0,0,0l-5.1-5.1c-1.9-1.8-4.9-1.8-6.7,0.1l-1.2,1.2
			c0.3-0.1,0.6-0.1,0.9-0.1C15.7,24.9,16.3,25.1,16.8,25.4"/>
		<path class="st0" d="M12.8,26.8c-0.1,0.1-0.1,0.1-0.2,0.2l-7.1,7c-0.9,0.9-0.9,2.3,0,3.2c0.9,0.9,2.3,0.9,3.2,0l9.8-9.7l0,0
			C18.5,27.5,15.6,23.9,12.8,26.8"/>
		<path class="st0" d="M12.4,17.1l-0.2,0.4l-0.1,0.1c-0.1,0.2-0.2,0.3-0.3,0.5l-0.1,0.2l-0.1,0.1c-0.3,0.3-0.6,0.6-0.9,0.9l-0.1,0.1
			l-5,5c-0.9,0.9-0.9,2.3,0,3.2c0.9,0.9,2.3,0.9,3.2,0c0,0,0,0,0,0l5.1-5.1c1.8-1.9,1.8-4.9-0.1-6.7l-1.2-1.2
			c0.1,0.3,0.1,0.6,0.1,0.9C12.8,15.9,12.7,16.5,12.4,17.1"/>
		<path class="st0" d="M11,13.1c-0.1-0.1-0.1-0.1-0.2-0.2l-7-7.1C2.9,4.9,1.5,4.9,0.6,5.7C-0.3,6.6-0.3,8,0.5,8.9c0,0,0,0,0,0
			l9.7,9.7l0,0C10.3,18.7,13.8,15.9,11,13.1"/>
		<path class="st0" d="M12.4,17.1l-0.2,0.4l-0.1,0.1c-0.1,0.2-0.2,0.3-0.3,0.5l-0.1,0.2l-0.1,0.1c-0.3,0.3-0.6,0.6-0.9,0.9l-0.1,0.1
			l-5,5c-0.9,0.9-0.9,2.3,0,3.2c0.9,0.9,2.3,0.9,3.2,0c0,0,0,0,0,0l5.1-5.1c1.8-1.9,1.8-4.9-0.1-6.7l-1.2-1.2
			c0.1,0.3,0.1,0.6,0.1,0.9C12.8,15.9,12.7,16.5,12.4,17.1"/>
		<g>
			<defs>
				<path id="SVGID_1_" d="M12.4,17.1l-0.2,0.4l-0.1,0.1c-0.1,0.2-0.2,0.3-0.3,0.5l-0.1,0.2l-0.1,0.1c-0.3,0.3-0.6,0.6-0.9,0.9
					l-0.1,0.1l-5,5c-0.9,0.9-0.9,2.3,0,3.2c0.9,0.9,2.3,0.9,3.2,0c0,0,0,0,0,0l5.1-5.1c1.8-1.9,1.8-4.9-0.1-6.7l-1.2-1.2
					c0.1,0.3,0.1,0.6,0.1,0.9C12.8,15.9,12.7,16.5,12.4,17.1"/>
			</defs>
			<clipPath id="SVGID_2_">
				<use xlink:href="#SVGID_1_"  style="overflow:visible;"/>
			</clipPath>
			<g class="st1">
				<g>
					
						<rect x="1.5" y="12.7" transform="matrix(0.7431 -0.6691 0.6691 0.7431 -11.7172 12.2277)" class="st0" width="17.1" height="17.4"/>
				</g>
			</g>
		</g>
		<path class="st0" d="M16.8,25.4l0.4,0.2c0,0,0.1,0,0.1,0.1c0.2,0.1,0.3,0.2,0.5,0.3l0.2,0.1l0.1,0.1c0.3,0.3,0.6,0.6,0.9,0.9
			l0.1,0.1l5,5c0.9,0.9,2.3,0.9,3.2,0c0.9-0.9,0.9-2.3,0-3.2c0,0,0,0,0,0l-5.1-5.1c-1.9-1.8-4.9-1.8-6.7,0.1l-1.2,1.2
			c0.3-0.1,0.6-0.1,0.9-0.1C15.7,24.9,16.3,25.1,16.8,25.4"/>
		<g>
			<defs>
				<path id="SVGID_3_" d="M16.8,25.4l0.4,0.2c0,0,0.1,0,0.1,0.1c0.2,0.1,0.3,0.2,0.5,0.3l0.2,0.1l0.1,0.1c0.3,0.3,0.6,0.6,0.9,0.9
					l0.1,0.1l5,5c0.9,0.9,2.3,0.9,3.2,0c0.9-0.9,0.9-2.3,0-3.2c0,0,0,0,0,0l-5.1-5.1c-1.9-1.8-4.9-1.8-6.7,0.1l-1.2,1.2
					c0.3-0.1,0.6-0.1,0.9-0.1C15.7,24.9,16.3,25.1,16.8,25.4"/>
			</defs>
			<clipPath id="SVGID_4_">
				<use xlink:href="#SVGID_3_"  style="overflow:visible;"/>
			</clipPath>
			<g class="st2">
				<g>
					
						<rect x="12.5" y="19.7" transform="matrix(0.8746 -0.4848 0.4848 0.8746 -10.7814 13.7267)" class="st0" width="17.3" height="16"/>
				</g>
			</g>
		</g>
		<path class="st0" d="M25.4,20.9l0.2-0.4l0.1-0.1c0.1-0.2,0.2-0.3,0.3-0.5l0.1-0.2l0.1-0.1c0.3-0.3,0.6-0.6,0.9-0.9l0.1-0.1l5-5
			c0.9-0.9,0.9-2.3,0-3.2c-0.9-0.9-2.3-0.9-3.2,0l-5.1,5.1c-1.8,1.9-1.8,4.9,0.1,6.7l1.2,1.2C25,23.2,25,22.9,25,22.6
			C25,22,25.1,21.4,25.4,20.9"/>
		<g>
			<defs>
				<path id="SVGID_5_" d="M25.4,20.9l0.2-0.4l0.1-0.1c0.1-0.2,0.2-0.3,0.3-0.5l0.1-0.2l0.1-0.1c0.3-0.3,0.6-0.6,0.9-0.9l0.1-0.1
					l5-5c0.9-0.9,0.9-2.3,0-3.2c-0.9-0.9-2.3-0.9-3.2,0l-5.1,5.1c-1.8,1.9-1.8,4.9,0.1,6.7l1.2,1.2C25,23.2,25,22.9,25,22.6
					C25,22,25.1,21.4,25.4,20.9"/>
			</defs>
			<clipPath id="SVGID_6_">
				<use xlink:href="#SVGID_5_"  style="overflow:visible;"/>
			</clipPath>
			<g class="st3">
				<g>
					
						<rect x="20.7" y="11.1" transform="matrix(1.745241e-02 -0.9998 0.9998 1.745241e-02 10.7611 43.9491)" class="st0" width="14.1" height="10.8"/>
				</g>
			</g>
		</g>
		<path class="st0" d="M21,12.6l-0.4-0.2l-0.1-0.1c-0.2-0.1-0.3-0.2-0.5-0.3l-0.2-0.1l-0.1-0.1c-0.3-0.3-0.6-0.6-0.9-0.9l-0.1-0.1
			l-5-5c-0.9-0.9-2.3-0.9-3.2,0s-0.9,2.3,0,3.2c0,0,0,0,0,0l5.1,5.1c1.9,1.8,4.8,1.7,6.7-0.1l1.2-1.2C23.3,13,23,13,22.7,13
			C22.1,13,21.5,12.8,21,12.6"/>
		<g>
			<defs>
				<path id="SVGID_7_" d="M21,12.6l-0.4-0.2l-0.1-0.1c-0.2-0.1-0.3-0.2-0.5-0.3l-0.2-0.1l-0.1-0.1c-0.3-0.3-0.6-0.6-0.9-0.9
					l-0.1-0.1l-5-5c-0.9-0.9-2.3-0.9-3.2,0s-0.9,2.3,0,3.2c0,0,0,0,0,0l5.1,5.1c1.9,1.8,4.8,1.7,6.7-0.1l1.2-1.2
					C23.3,13,23,13,22.7,13C22.1,13,21.5,12.8,21,12.6"/>
			</defs>
			<clipPath id="SVGID_8_">
				<use xlink:href="#SVGID_7_"  style="overflow:visible;"/>
			</clipPath>
			<g class="st4">
				<g>
					<rect x="9.7" y="5" class="st0" width="13.9" height="10.6"/>
				</g>
			</g>
		</g>
	</g>
</g>
</svg>
