<svg xmlns="http://www.w3.org/2000/svg" viewBox="0 0 176.79 103.4"><defs><style>.cls-1{stroke:#0f6cbd;stroke-miterlimit:10;}</style></defs><g id="Layer_2" data-name="Layer 2"><g id="_03_-_Paso_1" data-name="03 - Paso 1"><line class="cls-1" x1="108.79" y1="46.17" x2="96.34" y2="46.17"/><line class="cls-1" x1="102.57" y1="52.4" x2="102.57" y2="39.95"/><line class="cls-1" x1="100.95" y1="32.72" x2="88.5" y2="32.72"/><line class="cls-1" x1="94.72" y1="38.95" x2="94.72" y2="26.5"/><line class="cls-1" x1="91.79" y1="46.17" x2="79.34" y2="46.17"/><line class="cls-1" x1="85.57" y1="52.4" x2="85.57" y2="39.95"/><line class="cls-1" x1="83.95" y1="32.72" x2="71.5" y2="32.72"/><line class="cls-1" x1="77.72" y1="38.95" x2="77.72" y2="26.5"/><line class="cls-1" x1="74.79" y1="46.17" x2="62.34" y2="46.17"/><line class="cls-1" x1="68.57" y1="52.4" x2="68.57" y2="39.95"/><line class="cls-1" x1="66.95" y1="32.72" x2="54.5" y2="32.72"/><line class="cls-1" x1="60.72" y1="38.95" x2="60.72" y2="26.5"/><line class="cls-1" x1="57.79" y1="46.17" x2="45.34" y2="46.17"/><line class="cls-1" x1="51.57" y1="52.4" x2="51.57" y2="39.95"/><line class="cls-1" x1="49.95" y1="32.72" x2="37.5" y2="32.72"/><line class="cls-1" x1="43.72" y1="38.95" x2="43.72" y2="26.5"/><line class="cls-1" x1="74.29" y1="18.67" x2="61.84" y2="18.67"/><line class="cls-1" x1="68.07" y1="24.9" x2="68.07" y2="12.45"/><line class="cls-1" x1="63.45" y1="6.22" x2="51" y2="6.22"/><line class="cls-1" x1="57.22" y1="12.45" x2="57.22"/><line class="cls-1" x1="57.29" y1="18.67" x2="44.84" y2="18.67"/><line class="cls-1" x1="51.07" y1="24.9" x2="51.07" y2="12.45"/><line class="cls-1" x1="46.45" y1="6.22" x2="34" y2="6.22"/><line class="cls-1" x1="40.22" y1="12.45" x2="40.22"/><line class="cls-1" x1="40.29" y1="18.67" x2="27.84" y2="18.67"/><line class="cls-1" x1="34.07" y1="24.9" x2="34.07" y2="12.45"/><line class="cls-1" x1="29.45" y1="6.22" x2="17" y2="6.22"/><line class="cls-1" x1="23.22" y1="12.45" x2="23.22"/><line class="cls-1" x1="23.29" y1="18.67" x2="10.84" y2="18.67"/><line class="cls-1" x1="17.07" y1="24.9" x2="17.07" y2="12.45"/><line class="cls-1" x1="12.45" y1="6.22" y2="6.22"/><line class="cls-1" x1="6.22" y1="12.45" x2="6.22"/><line class="cls-1" x1="100.95" y1="84.72" x2="88.5" y2="84.72"/><line class="cls-1" x1="94.72" y1="90.95" x2="94.72" y2="78.5"/><line class="cls-1" x1="94.79" y1="97.17" x2="82.34" y2="97.17"/><line class="cls-1" x1="88.57" y1="103.4" x2="88.57" y2="90.95"/><line class="cls-1" x1="83.95" y1="84.72" x2="71.5" y2="84.72"/><line class="cls-1" x1="77.72" y1="90.95" x2="77.72" y2="78.5"/><line class="cls-1" x1="116.45" y1="58.22" x2="104" y2="58.22"/><line class="cls-1" x1="110.22" y1="64.45" x2="110.22" y2="52"/><line class="cls-1" x1="110.29" y1="70.67" x2="97.84" y2="70.67"/><line class="cls-1" x1="104.07" y1="76.9" x2="104.07" y2="64.45"/><line class="cls-1" x1="99.45" y1="58.22" x2="87" y2="58.22"/><line class="cls-1" x1="93.22" y1="64.45" x2="93.22" y2="52"/><line class="cls-1" x1="93.29" y1="70.67" x2="80.84" y2="70.67"/><line class="cls-1" x1="87.07" y1="76.9" x2="87.07" y2="64.45"/><line class="cls-1" x1="82.45" y1="58.22" x2="70" y2="58.22"/><line class="cls-1" x1="76.22" y1="64.45" x2="76.22" y2="52"/><line class="cls-1" x1="76.29" y1="70.67" x2="63.84" y2="70.67"/><line class="cls-1" x1="70.07" y1="76.9" x2="70.07" y2="64.45"/><line class="cls-1" x1="65.45" y1="58.22" x2="53" y2="58.22"/><line class="cls-1" x1="59.22" y1="64.45" x2="59.22" y2="52"/><line class="cls-1" x1="176.79" y1="46.17" x2="164.34" y2="46.17"/><line class="cls-1" x1="170.57" y1="52.4" x2="170.57" y2="39.95"/><line class="cls-1" x1="168.95" y1="32.72" x2="156.5" y2="32.72"/><line class="cls-1" x1="162.72" y1="38.95" x2="162.72" y2="26.5"/><line class="cls-1" x1="159.79" y1="46.17" x2="147.34" y2="46.17"/><line class="cls-1" x1="153.57" y1="52.4" x2="153.57" y2="39.95"/><line class="cls-1" x1="151.95" y1="32.72" x2="139.5" y2="32.72"/><line class="cls-1" x1="145.72" y1="38.95" x2="145.72" y2="26.5"/><line class="cls-1" x1="142.79" y1="46.17" x2="130.34" y2="46.17"/><line class="cls-1" x1="136.57" y1="52.4" x2="136.57" y2="39.95"/><line class="cls-1" x1="134.95" y1="32.72" x2="122.5" y2="32.72"/><line class="cls-1" x1="128.72" y1="38.95" x2="128.72" y2="26.5"/><line class="cls-1" x1="125.79" y1="46.17" x2="113.34" y2="46.17"/><line class="cls-1" x1="119.57" y1="52.4" x2="119.57" y2="39.95"/><line class="cls-1" x1="117.95" y1="32.72" x2="105.5" y2="32.72"/><line class="cls-1" x1="111.72" y1="38.95" x2="111.72" y2="26.5"/><line class="cls-1" x1="142.29" y1="18.67" x2="129.84" y2="18.67"/><line class="cls-1" x1="136.07" y1="24.9" x2="136.07" y2="12.45"/><line class="cls-1" x1="131.45" y1="6.22" x2="119" y2="6.22"/><line class="cls-1" x1="125.22" y1="12.45" x2="125.22"/><line class="cls-1" x1="125.29" y1="18.67" x2="112.84" y2="18.67"/><line class="cls-1" x1="119.07" y1="24.9" x2="119.07" y2="12.45"/><line class="cls-1" x1="114.45" y1="6.22" x2="102" y2="6.22"/><line class="cls-1" x1="108.22" y1="12.45" x2="108.22"/><line class="cls-1" x1="108.29" y1="18.67" x2="95.84" y2="18.67"/><line class="cls-1" x1="102.07" y1="24.9" x2="102.07" y2="12.45"/><line class="cls-1" x1="97.45" y1="6.22" x2="85" y2="6.22"/><line class="cls-1" x1="91.22" y1="12.45" x2="91.22"/><line class="cls-1" x1="91.29" y1="18.67" x2="78.84" y2="18.67"/><line class="cls-1" x1="85.07" y1="24.9" x2="85.07" y2="12.45"/><line class="cls-1" x1="80.45" y1="6.22" x2="68" y2="6.22"/><line class="cls-1" x1="74.22" y1="12.45" x2="74.22"/></g></g></svg>