<svg xmlns="http://www.w3.org/2000/svg" viewBox="0 0 299.05 494.8"><defs><style>.cls-1{fill:#0f6cbd;}.cls-2{fill:#b3b3b3;}.cls-3{fill:#e6e6e6;}.cls-4{fill:#e6e7e8;}.cls-5,.cls-6{fill:none;stroke:#221e1e;stroke-miterlimit:10;}.cls-6{stroke-dasharray:4 3;}.cls-7{stroke:#000;stroke-linecap:round;stroke-linejoin:round;}</style></defs><g id="Layer_2" data-name="Layer 2"><g id="_03_-_Paso_1" data-name="03 - Paso 1"><circle cx="89.92" cy="236.59" r="37.59"/><rect class="cls-1" x="124.15" y="72.02" width="32" height="32"/><rect class="cls-2" x="92.15" y="72.02" width="32" height="32"/><rect class="cls-3" x="123.65" y="40.52" width="32" height="32"/><polygon class="cls-4" points="232.75 133.76 194.93 199.28 270.58 199.28 232.75 133.76"/><path class="cls-5" d="M225.79,126.91a92.21,92.21,0,0,0-58.36-52.07"/><path class="cls-6" d="M69.93,281.93C30.79,386.17,54.65,441.52,136.65,490.52"/><line class="cls-7" x1="139.11" y1="485.7" x2="142.12" y2="494.3"/><line class="cls-7" x1="133.05" y1="493.38" x2="142.12" y2="494.3"/><line class="cls-5" x1="101.12" y1="10.75" x2="121.09" y2="10.75"/><line class="cls-5" x1="111.36" x2="111.36" y2="21"/><line class="cls-5" y1="190.11" x2="13.97" y2="190.11"/><line class="cls-5" x1="7.16" y1="182.59" x2="7.16" y2="197.28"/><line class="cls-5" x1="291.46" y1="181.58" x2="291.46" y2="195.68"/><line class="cls-5" x1="299.05" y1="188.81" x2="284.23" y2="188.81"/><line class="cls-5" x1="92.18" y1="28.17" x2="105.62" y2="28.17"/><line class="cls-5" x1="99.07" y1="20.93" x2="99.07" y2="35.06"/><line class="cls-5" x1="12.07" y1="206.74" x2="26.04" y2="206.74"/><line class="cls-5" x1="175.4" y1="51.44" x2="188.85" y2="51.44"/><line class="cls-5" x1="269.67" y1="154.54" x2="283.77" y2="154.54"/><line class="cls-5" x1="18.99" y1="218.44" x2="32.95" y2="218.44"/><line class="cls-5" x1="120.99" y1="274.44" x2="134.95" y2="274.44"/></g></g></svg>