<svg xmlns="http://www.w3.org/2000/svg" viewBox="0 0 326.05 578.97"><defs><style>.cls-1{fill:gray;}.cls-2{fill:#0f6cbd;}.cls-3{fill:#28d5e0;}.cls-4{fill:#e6e6e6;}.cls-5,.cls-6{fill:none;stroke:#221e1e;stroke-miterlimit:10;}.cls-6{stroke-dasharray:4 3;}.cls-7{stroke:#000;stroke-linecap:round;stroke-linejoin:round;}</style></defs><g id="Layer_2" data-name="Layer 2"><g id="_04_-_Paso_2" data-name="04 - Paso 2"><circle class="cls-1" cx="271.41" cy="537.7" r="37.59" transform="translate(-280.85 297.31) rotate(-39.69)"/><rect class="cls-2" x="106.85" y="471.47" width="32" height="32" transform="translate(-364.63 610.32) rotate(-90)"/><rect class="cls-3" x="106.85" y="503.47" width="32" height="32" transform="translate(-396.63 642.32) rotate(-90)"/><rect class="cls-4" x="75.35" y="471.97" width="32" height="32" transform="translate(-396.63 579.32) rotate(-90)"/><polygon class="cls-3" points="168.59 394.86 234.1 432.69 234.1 357.04 168.59 394.86"/><path class="cls-5" d="M289.61,493c.15-2.15.24-4.31.24-6.5a92,92,0,0,0-46-79.67"/><path class="cls-5" d="M129.87,548.46a92.09,92.09,0,0,0,105.85,21.88"/><path class="cls-5" d="M161.74,401.83a92.26,92.26,0,0,0-52.08,58.35"/><path class="cls-6" d="M282.11,293.17C335.18,158.47,123.18,47.47.18.47"/><line class="cls-7" x1="287.1" y1="293.21" x2="280.01" y2="298.94"/><line class="cls-7" x1="277.82" y1="290.09" x2="280.01" y2="298.94"/><line class="cls-5" x1="87.91" y1="563.35" x2="67.94" y2="563.35"/><line class="cls-5" x1="77.67" y1="574.1" x2="77.67" y2="553.11"/><line class="cls-5" x1="319.03" y1="494.99" x2="305.07" y2="494.99"/><line class="cls-5" x1="311.87" y1="502.51" x2="311.87" y2="487.83"/><line class="cls-5" x1="70.58" y1="463.53" x2="70.58" y2="449.42"/><line class="cls-5" x1="62.98" y1="456.29" x2="77.81" y2="456.29"/><line class="cls-5" x1="191.52" y1="349.73" x2="191.52" y2="335.63"/><line class="cls-5" x1="183.93" y1="342.5" x2="198.75" y2="342.5"/><line class="cls-5" x1="190.86" y1="355.94" x2="177.41" y2="355.94"/><line class="cls-5" x1="183.96" y1="363.18" x2="183.96" y2="349.04"/><line class="cls-5" x1="113.14" y1="555.81" x2="99.69" y2="555.81"/><line class="cls-5" x1="106.24" y1="563.06" x2="106.24" y2="548.92"/><line class="cls-5" x1="91.63" y1="535.67" x2="78.18" y2="535.67"/><line class="cls-5" x1="326.05" y1="519.67" x2="312.08" y2="519.67"/><line class="cls-5" x1="231.05" y1="350.67" x2="217.08" y2="350.67"/><path d="M172.85,479.48h2.35a.58.58,0,0,0,.59-.59.59.59,0,0,0-.59-.59h-2.35a.59.59,0,0,0-.58.59.58.58,0,0,0,.58.59Z"/><path d="M172.85,481.24h2.35a.59.59,0,1,0,0-1.17h-2.35a.59.59,0,0,0,0,1.17Z"/><path d="M172.85,483h2.35a.59.59,0,1,0,0-1.17h-2.35a.59.59,0,0,0,0,1.17Z"/><path d="M189.05,502.5l-5.62-12V477.13a1.77,1.77,0,0,0,0-3.53H170.5a1.77,1.77,0,0,0,0,3.53v13.38l-5.62,12a5.29,5.29,0,0,0,4.79,7.53h14.59a5.29,5.29,0,0,0,4.79-7.53Zm-19.13-27.13a.58.58,0,0,1,.58-.59h12.93a.59.59,0,0,1,0,1.17H170.5a.58.58,0,0,1-.58-.58Zm12.33,1.76V488a5.45,5.45,0,0,1-1.2-.25,6.44,6.44,0,0,0-2.13-.32,6.34,6.34,0,0,0-2.12.32A5.48,5.48,0,0,1,175,488a5.4,5.4,0,0,1-1.79-.27,6.77,6.77,0,0,0-1.54-.3v-10.3ZM187.73,507a4.07,4.07,0,0,1-3.47,1.9H169.67A4.11,4.11,0,0,1,166,503l5.67-12.1a.54.54,0,0,0,.06-.25v-2a4.91,4.91,0,0,1,1.2.24,6.19,6.19,0,0,0,2.13.32,6.1,6.1,0,0,0,2.12-.32,5.48,5.48,0,0,1,1.79-.27,5.4,5.4,0,0,1,1.79.27,5.84,5.84,0,0,0,1.54.3v1.49a.54.54,0,0,0,.06.25L188,503a4.11,4.11,0,0,1-.25,4Z"/><path d="M182.84,506.5h-7.05a.59.59,0,1,0,0,1.18h7.05a.59.59,0,1,0,0-1.18Z"/><path d="M185.19,506.5h-.59a.59.59,0,1,0,0,1.18h.59a.59.59,0,1,0,0-1.18Z"/><path d="M234.81,487.34v-9.68a.6.6,0,0,0-.6-.6h-.61v-1.21a.6.6,0,0,0-.6-.61V474a1.81,1.81,0,0,0,1.81-1.81V457.71A1.81,1.81,0,0,0,233,455.9H200.35a1.82,1.82,0,0,0-1.82,1.81v14.51a1.82,1.82,0,0,0,1.82,1.81v1.21a.61.61,0,0,0-.61.61v1.21h-.6a.6.6,0,0,0-.61.6v9.68a.6.6,0,0,0-.6.6v2.42a3,3,0,0,0,3,3h2.42a.6.6,0,0,0,.6-.6h25.4a.6.6,0,0,0,.6.6h2.42a3,3,0,0,0,3-3v-2.42a.6.6,0,0,0-.61-.6Zm-9.67-10.28v-.61h7.25v.61ZM204,474h4.24v1.21H204Zm5.22-7.12-2.8-2.23v-3.09l1.21-1.21v2.17a.6.6,0,0,0,.34.54l2.42,1.21a.64.64,0,0,0,.54,0l2.42-1.21a.6.6,0,0,0,.33-.54v-2.17l1.21,1.21v3.08l-2.8,2.24a.63.63,0,0,0-.23.47v9.68h-2.41v-9.68a.63.63,0,0,0-.23-.47Zm11.11,8.33H213V474h7.26ZM213,477.66v-1.21h7.26v6.65H213Zm8.29-10.1-2.84-2.85v-3.12l2.06-2.07h4.34l2.06,2.07v3.12l-2.85,2.85a.61.61,0,0,0-.17.43v9.07h-2.42V468a.58.58,0,0,0-.18-.43Zm8,7.68h-4.23V474h4.23Zm1.21,0v-1.81h1.21v1.81ZM216.07,457.1h1.21v.61h-1.21Zm-16.33,15.12V457.71a.61.61,0,0,1,.61-.61h14.51v1.21a.6.6,0,0,0,.6.61h2.42a.61.61,0,0,0,.61-.61V457.1H233a.61.61,0,0,1,.6.61v14.51a.61.61,0,0,1-.6.61.61.61,0,0,0-.61-.61H230a.6.6,0,0,0-.6.61h-4.23v-4.59l2.84-2.85a.56.56,0,0,0,.18-.42v-3.63a.58.58,0,0,0-.18-.43l-2.42-2.42a.6.6,0,0,0-.42-.18H220.3a.64.64,0,0,0-.43.18l-2.42,2.42a.61.61,0,0,0-.17.43V465a.59.59,0,0,0,.17.42l2.85,2.85v4.59H213v-5.16l2.8-2.23a.63.63,0,0,0,.23-.47v-3.63a.62.62,0,0,0-.18-.43l-2.42-2.42a.62.62,0,0,0-.66-.13.6.6,0,0,0-.37.56v3.25l-1.81.91-1.82-.91v-3.25a.6.6,0,0,0-.37-.56.62.62,0,0,0-.66.13l-2.42,2.42a.62.62,0,0,0-.18.43V465a.63.63,0,0,0,.23.47l2.8,2.23v5.16H204a.6.6,0,0,0-.6-.61H201a.6.6,0,0,0-.6.61.61.61,0,0,1-.61-.61Zm1.82,1.21h1.21v1.81h-1.21Zm-.61,3h7.26v.61H201Zm1.82,15.72H201a1.81,1.81,0,0,1-1.81-1.81v-1.81h3.63Zm26.6-4.23v3.63H204v-3.63a.6.6,0,0,0-.6-.6h-3.63v-9.07h12.09v5.44a.61.61,0,0,0,.61.6h8.46a.6.6,0,0,0,.61-.6v-5.44H233.6v9.07H230a.6.6,0,0,0-.6.6Zm4.84,2.42a1.82,1.82,0,0,1-1.82,1.81h-1.81v-3.62h3.63Z"/><path d="M219.09,477.66h-4.84a.6.6,0,0,0-.6.61v3.63a.6.6,0,0,0,.6.6h4.84a.61.61,0,0,0,.61-.6v-3.63a.61.61,0,0,0-.61-.61Zm-.6,3.63h-3.63v-2.42h3.63Z"/><path d="M225.74,463.15a3,3,0,1,0-3,3,3,3,0,0,0,3-3Zm-4.84,0a1.82,1.82,0,1,1,1.82,1.82,1.82,1.82,0,0,1-1.82-1.82Z"/></g></g></svg>