<svg xmlns="http://www.w3.org/2000/svg" viewBox="0 0 258.06 467.93"><defs><style>.cls-1{fill:#28d5e0;}.cls-2{fill:#0f6cbd;}.cls-3{fill:#e6e6e6;}.cls-4,.cls-5{fill:none;stroke:#221e1e;stroke-miterlimit:10;}.cls-5{stroke-dasharray:4 3;}.cls-6{stroke:#000;stroke-linecap:round;stroke-linejoin:round;}</style></defs><g id="Layer_2" data-name="Layer 2"><g id="_04_-_Paso_2" data-name="04 - Paso 2"><circle class="cls-1" cx="209.72" cy="397.9" r="37.59" transform="translate(-205.79 225.68) rotate(-39.69)"/><rect class="cls-2" x="45.15" y="331.68" width="32" height="32" transform="translate(-286.52 408.83) rotate(-90)"/><rect class="cls-1" x="45.15" y="363.68" width="32" height="32" transform="translate(-318.52 440.83) rotate(-90)"/><rect class="cls-3" x="13.65" y="332.18" width="32" height="32" transform="translate(-318.52 377.83) rotate(-90)"/><polygon class="cls-1" points="106.9 255.07 172.41 292.89 172.41 217.24 106.9 255.07"/><path class="cls-4" d="M227.92,353.18q.22-3.23.23-6.5a92,92,0,0,0-46-79.68"/><path class="cls-4" d="M68.18,408.66A92,92,0,0,0,174,430.54"/><path class="cls-4" d="M100.05,262A92.25,92.25,0,0,0,48,320.39"/><line class="cls-4" x1="26.22" y1="423.55" x2="6.25" y2="423.55"/><line class="cls-4" x1="15.98" y1="434.31" x2="15.98" y2="413.31"/><line class="cls-4" x1="243.22" y1="449.55" x2="223.25" y2="449.55"/><line class="cls-4" x1="232.98" y1="460.31" x2="232.98" y2="439.31"/><line class="cls-4" x1="257.34" y1="334.19" x2="243.37" y2="334.19"/><line class="cls-4" x1="250.18" y1="341.71" x2="250.18" y2="327.03"/><line class="cls-4" x1="8.88" y1="323.73" x2="8.88" y2="309.63"/><line class="cls-4" x1="1.29" y1="316.5" x2="16.12" y2="316.5"/><line class="cls-4" x1="129.83" y1="209.93" x2="129.83" y2="195.83"/><line class="cls-4" x1="122.23" y1="202.7" x2="137.06" y2="202.7"/><line class="cls-4" x1="189.83" y1="240.93" x2="189.83" y2="226.83"/><line class="cls-4" x1="182.23" y1="233.7" x2="197.06" y2="233.7"/><line class="cls-4" x1="250.83" y1="377.93" x2="250.83" y2="363.83"/><line class="cls-4" x1="243.23" y1="370.7" x2="258.06" y2="370.7"/><line class="cls-4" x1="196.83" y1="467.93" x2="196.83" y2="453.83"/><line class="cls-4" x1="189.23" y1="460.7" x2="204.06" y2="460.7"/><line class="cls-4" x1="129.16" y1="216.14" x2="115.72" y2="216.14"/><line class="cls-4" x1="122.27" y1="223.38" x2="122.27" y2="209.24"/><line class="cls-4" x1="13.45" y1="383.02" y2="383.02"/><line class="cls-4" x1="6.55" y1="390.26" x2="6.55" y2="376.12"/><line class="cls-4" x1="51.45" y1="408.02" x2="38" y2="408.02"/><line class="cls-4" x1="44.55" y1="415.26" x2="44.55" y2="401.12"/><line class="cls-4" x1="100.45" y1="310.02" x2="87" y2="310.02"/><line class="cls-4" x1="93.55" y1="317.26" x2="93.55" y2="303.12"/></g><g id="_06_-_Paso_4" data-name="06 - Paso 4"><path class="cls-5" d="M96.81.39C10.41,70.62,3.06,130.44,49.11,214.13"/><line class="cls-6" x1="53.67" y1="211.22" x2="51.92" y2="220.16"/><line class="cls-6" x1="44.56" y1="214.78" x2="51.92" y2="220.16"/></g></g></svg>