<svg xmlns="http://www.w3.org/2000/svg" viewBox="0 0 49.2 45.58"><g id="Layer_2" data-name="Layer 2"><g id="_04_-_Paso_2" data-name="04 - Paso 2"><path d="M44.21,8.11a.78.78,0,0,0-1-.45l0,0L39.91,9.54a.6.6,0,0,0,.6,1.05l2.11-1.21a41.29,41.29,0,0,1-8,15.49A38.67,38.67,0,0,1,23.2,34.05,41.82,41.82,0,0,1,9.25,38.64a4.85,4.85,0,1,0,.47,2.08,4.78,4.78,0,0,0-.09-.92,42.53,42.53,0,0,0,14.1-4.67,40.09,40.09,0,0,0,11.75-9.46A42.48,42.48,0,0,0,43.7,10l.78,1.87a.6.6,0,1,0,1.1-.47ZM4.87,44.38a3.66,3.66,0,1,1,3.65-3.66,3.66,3.66,0,0,1-3.65,3.66Z"/><path d="M22.39,11.55a.61.61,0,0,0-.85,0l-2.6,2.34-2.6-2.34a.6.6,0,1,0-.8.89l2.51,2.25-2.51,2.26a.6.6,0,1,0,.8.89l2.6-2.34,2.6,2.34a.6.6,0,0,0,.8-.89l-2.5-2.25,2.5-2.26a.6.6,0,0,0,.05-.85Z"/><path d="M43.66,37.91a.6.6,0,0,0-.85,0l-2.6,2.34-2.6-2.34a.6.6,0,0,0-.8.89L39.32,41l-2.51,2.25a.59.59,0,0,0,0,.85.58.58,0,0,0,.84,0l2.6-2.34,2.6,2.34a.59.59,0,0,0,.85,0,.6.6,0,0,0,0-.85L41.11,41l2.5-2.26a.59.59,0,0,0,0-.84Z"/><path d="M46.3,0a2.9,2.9,0,1,0,2.9,2.9A2.89,2.89,0,0,0,46.3,0Zm0,4.6A1.7,1.7,0,1,1,48,2.9a1.71,1.71,0,0,1-1.7,1.7Z"/></g></g></svg>