<svg xmlns="http://www.w3.org/2000/svg" viewBox="0 0 44.75 50.69"><g id="Layer_2" data-name="Layer 2"><g id="_04_-_Paso_2" data-name="04 - Paso 2"><path d="M42.74,10.25a3,3,0,0,0-4,2.92l-6.66,3.42a11.71,11.71,0,0,0-10.3-5.15l-.86-6.65a2.45,2.45,0,1,0-1.21.08l.87,6.69A11.68,11.68,0,0,0,11.5,27.42L7.84,29.2a4.24,4.24,0,1,0,.41,3.65,4.19,4.19,0,0,0,.08-2.55L12,28.52a11.68,11.68,0,0,0,14.3,5.6l2,7.75a4.61,4.61,0,1,0,1.16-.33l-2-7.89a11.63,11.63,0,0,0,5.76-6.1l3.31,1.86a.42.42,0,0,0,0,.1,2.42,2.42,0,1,0,.76-1.08l-3.62-2A11.55,11.55,0,0,0,32.91,18c-.06-.14-.13-.27-.2-.41L39,14.38a3,3,0,0,0,5.55-.3,3.06,3.06,0,0,0-.13-2.3,3,3,0,0,0-1.72-1.53ZM19.08,3a1.2,1.2,0,0,1,1-1.74A1.23,1.23,0,0,1,21.27,2,1.22,1.22,0,0,1,19.08,3Zm11,39.68a3.4,3.4,0,0,1,3.2,4.51,3.4,3.4,0,1,1-3.2-4.51Zm-23-10.25A3,3,0,1,1,7,30.13a3,3,0,0,1,.13,2.32ZM38.75,29.1a1.21,1.21,0,1,1-1.15.81,1.19,1.19,0,0,1,1.15-.81Zm-6.47-2.53a10.48,10.48,0,1,1-.46-8,10.49,10.49,0,0,1,.46,8ZM43.44,13.68A1.79,1.79,0,0,1,40,13.19a1.79,1.79,0,1,1,3.48.49Z"/><path d="M22.48,22.56a2,2,0,0,0,2.12-2,2.13,2.13,0,1,0-4.25,0,2,2,0,0,0,2.13,2Zm0-2.93a.91.91,0,0,1,.91.91.83.83,0,0,1-.91.81.84.84,0,0,1-.92-.81.92.92,0,0,1,.92-.91Z"/><path d="M22.53,22.74h-.11A3.28,3.28,0,0,0,19.14,26v.42a.79.79,0,0,0,.78.79H25a.8.8,0,0,0,.79-.79V26a3.3,3.3,0,0,0-3.29-3.28ZM20.35,26A2.07,2.07,0,0,1,22.42,24h.11A2.08,2.08,0,0,1,24.61,26Z"/></g></g></svg>