<svg xmlns="http://www.w3.org/2000/svg" viewBox="0 0 43.07 43.07"><g id="Layer_2" data-name="Layer 2"><g id="_04_-_Paso_2" data-name="04 - Paso 2"><path d="M42.37,36.12V25a.69.69,0,0,0-.69-.7H41V22.92a.69.69,0,0,0-.69-.69V20.84a2.08,2.08,0,0,0,2.08-2.08V2.08A2.08,2.08,0,0,0,40.29,0H2.78A2.09,2.09,0,0,0,.69,2.08V18.75a2.1,2.1,0,0,0,2.09,2.09v1.39a.69.69,0,0,0-.7.69v1.39H1.39a.7.7,0,0,0-.7.7V36.12a.69.69,0,0,0-.69.7v2.77a3.48,3.48,0,0,0,3.47,3.48H6.25a.7.7,0,0,0,.7-.7H36.12a.69.69,0,0,0,.69.7h2.78a3.48,3.48,0,0,0,3.48-3.48V36.82a.7.7,0,0,0-.7-.7ZM31.26,24.31v-.69h8.33v.69ZM7,20.84h4.86v1.39H7Zm6-8.18L9.72,10.09V6.54l1.39-1.39V7.64a.7.7,0,0,0,.39.62l2.78,1.39a.68.68,0,0,0,.62,0l2.78-1.39a.71.71,0,0,0,.38-.62V5.15l1.39,1.39v3.55l-3.21,2.57a.67.67,0,0,0-.26.54V24.31H13.2V13.2a.7.7,0,0,0-.26-.54ZM25.7,22.23H17.37V20.84H25.7ZM17.37,25V23.62H25.7v7.64H17.37ZM26.89,13.4l-3.27-3.27V6.54L26,4.17h5l2.37,2.37v3.59L30.07,13.4a.7.7,0,0,0-.2.49V24.31H27.09V13.89a.7.7,0,0,0-.2-.49Zm9.23,8.83H31.26V20.84h4.86Zm1.39,0V20.14H38.9v2.09ZM20.84,1.39h1.39v.69H20.84ZM2.08,18.75V2.08a.69.69,0,0,1,.7-.69H19.45V2.78a.69.69,0,0,0,.69.69h2.78a.69.69,0,0,0,.7-.69V1.39H40.29a.69.69,0,0,1,.69.69V18.76a.69.69,0,0,1-.69.69.69.69,0,0,0-.7-.69H36.81a.69.69,0,0,0-.69.69H31.26V14.18l3.27-3.27a.7.7,0,0,0,.2-.49V6.25a.7.7,0,0,0-.2-.49L31.75,3a.7.7,0,0,0-.49-.2H25.7a.7.7,0,0,0-.49.2L22.43,5.76a.7.7,0,0,0-.2.49v4.17a.7.7,0,0,0,.2.49l3.27,3.27v5.27H17.37V13.53L20.58,11a.7.7,0,0,0,.26-.54V6.25a.67.67,0,0,0-.21-.49L17.86,3a.7.7,0,0,0-1.19.49V7.21l-2.08,1-2.09-1V3.47a.7.7,0,0,0-.43-.64.68.68,0,0,0-.75.15L8.54,5.76a.7.7,0,0,0-.2.49v4.17A.67.67,0,0,0,8.6,11l3.21,2.57v5.92H7a.69.69,0,0,0-.7-.69H3.47a.69.69,0,0,0-.69.69.7.7,0,0,1-.7-.7Zm2.09,1.39H5.56v2.09H4.17Zm-.7,3.48h8.34v.69H3.47ZM5.56,41.68H3.47a2.09,2.09,0,0,1-2.08-2.09V37.51H5.56Zm30.56-4.86V41H7V36.82a.7.7,0,0,0-.7-.7H2.08V25.7H16V32a.69.69,0,0,0,.69.7H26.4a.69.69,0,0,0,.69-.7V25.7H41V36.12H36.81a.69.69,0,0,0-.69.7Zm5.56,2.77a2.1,2.1,0,0,1-2.09,2.09H37.51V37.51h4.17Z"/><path d="M24.31,25H18.75a.69.69,0,0,0-.69.69v4.17a.69.69,0,0,0,.69.69h5.56a.69.69,0,0,0,.7-.69V25.7a.69.69,0,0,0-.7-.69Zm-.69,4.16H19.45V26.4h4.17Z"/><path d="M32,8.34a3.47,3.47,0,1,0-3.47,3.47A3.48,3.48,0,0,0,32,8.34Zm-5.55,0a2.08,2.08,0,1,1,2.08,2.08A2.09,2.09,0,0,1,26.4,8.34Z"/></g></g></svg>