<?xml version="1.0" encoding="utf-8"?>
<!-- Generator: Adobe Illustrator 24.1.0, SVG Export Plug-In . SVG Version: 6.00 Build 0)  -->
<svg version="1.1" id="Layer_1" xmlns="http://www.w3.org/2000/svg" xmlns:xlink="http://www.w3.org/1999/xlink" x="0px" y="0px"
	 viewBox="0 0 38.8 154.5" style="enable-background:new 0 0 38.8 154.5;" xml:space="preserve">
<style type="text/css">
	.st0{fill:#231F20;}
	.st1{clip-path:url(#SVGID_2_);}
	.st2{clip-path:url(#SVGID_4_);}
	.st3{clip-path:url(#SVGID_6_);}
	.st4{clip-path:url(#SVGID_8_);}
</style>
<g id="Layer_2_1_">
	<g id="_01_-_Hero">
		<path class="st0" d="M30.4,93.8v-5.1H19.8c-3.2,0-5.7,0.3-7.6,1.8c-1.7,1.3-2.7,3.3-2.6,5.4c0,2.5,1.2,4.8,3.2,6.3l0.6,0.4
			l-1.9,0.3c-0.8,0.1-1.5,0.9-1.5,1.7v2.8h20.4v-5.1H16.7h-0.1c-1.7-1-2.8-2.8-2.8-4.8c-0.1-1.3,0.5-2.5,1.6-3.1
			c1.5-0.6,3.1-0.8,4.6-0.7L30.4,93.8z"/>
		<path class="st0" d="M9.5,75.6c-0.1,5.8,4.4,10.6,10.2,10.7c0.2,0,0.3,0,0.5,0c5.9-0.2,10.6-5.1,10.4-11
			c-0.2-5.7-4.7-10.2-10.4-10.4c-5.8-0.1-10.5,4.4-10.7,10.2C9.5,75.3,9.5,75.4,9.5,75.6 M26.6,75.6c0,3.2-2.7,5.6-6.4,5.6
			s-6.4-2.3-6.4-5.6s2.7-5.5,6.4-5.5S26.6,72.4,26.6,75.6"/>
		<path class="st0" d="M9.5,51.8c-0.1,5.8,4.4,10.6,10.2,10.7c0.2,0,0.3,0,0.5,0c5.8,0.1,10.6-4.5,10.7-10.2c0-0.2,0-0.3,0-0.5
			c0.2-5.7-4.3-10.5-10.1-10.7c-0.1,0-0.2,0-0.3,0H1v3.6c0,0.8,0.7,1.5,1.5,1.5c0,0,0,0,0,0h6l2.3,0.1l-0.2,0.5
			C9.9,48.4,9.5,50.1,9.5,51.8 M26.6,51.8c0,3.2-2.7,5.5-6.4,5.5s-6.4-2.3-6.4-5.5s2.7-5.5,6.4-5.5S26.6,48.7,26.6,51.8"/>
		<path class="st0" d="M9.5,27.7c-0.1,5.8,4.4,10.6,10.2,10.7c0.2,0,0.3,0,0.5,0c5.8,0.1,10.6-4.5,10.7-10.2c0-0.2,0-0.3,0-0.5
			C31,21.9,26.4,17.1,20.7,17c-0.2,0-0.3,0-0.5,0c-5.8-0.1-10.5,4.4-10.7,10.2C9.5,27.4,9.5,27.5,9.5,27.7 M26.6,27.7
			c0,3.2-2.7,5.6-6.4,5.6s-6.4-2.3-6.4-5.5s2.7-5.5,6.4-5.5S26.6,24.5,26.6,27.7"/>
		<path class="st0" d="M27.6,15.8c2.1-2.1,3.3-5,3.3-8c0-3.9-2-7.8-6.5-7.8c-3.7,0-5,3.1-6.1,5.8l0,0.1c-0.7,1.7-1.4,3.5-3,3.5
			c-1.1-0.1-2-1.1-1.9-2.2c0,0,0-0.1,0-0.1c0-1.1,0.3-2.1,0.8-3c0.4-0.7,0.2-1.6-0.3-2.2L12,0.3c-1.7,1.9-2.5,4.3-2.5,6.8
			c0,3.5,1.9,7.2,6.1,7.2c3.4,0,4.8-2.5,5.9-5.1l0.3-0.7c0.8-1.9,1.5-3.5,3-3.5S27,6.6,27,8c0,1.4-0.5,2.7-1.3,3.8
			c-0.5,0.7-0.4,1.7,0.2,2.3L27.6,15.8z"/>
		<path class="st0" d="M3.4,130.5c1.7,0,3,1.3,3,3s-1.3,3-3,3s-3-1.3-3-3S1.7,130.5,3.4,130.5"/>
		<path class="st0" d="M34.4,136.6c-1.7,0-3-1.3-3-3s1.3-3,3-3s3,1.3,3,3S36,136.6,34.4,136.6"/>
		<path class="st0" d="M11.1,127.4c-0.1-0.1-0.1-0.1-0.2-0.2l-7-7.1c-0.8-0.9-2.3-1-3.2-0.2s-1,2.3-0.2,3.2c0.1,0.1,0.1,0.1,0.2,0.2
			l9.6,9.7l0,0C10.3,133,13.9,130.2,11.1,127.4"/>
		<path class="st0" d="M12.5,131.4l-0.2,0.4l-0.1,0.1c-0.1,0.2-0.2,0.3-0.3,0.5l-0.1,0.2l-0.1,0.1c-0.3,0.3-0.6,0.6-0.9,0.9
			l-0.1,0.1l-5,5c-0.9,0.9-0.9,2.3,0,3.2s2.3,0.9,3.2,0c0,0,0,0,0,0l5.1-5.1c1.8-1.9,1.7-4.8-0.1-6.7l-1.2-1.2
			c0.1,0.3,0.1,0.6,0.1,0.9C12.9,130.3,12.8,130.9,12.5,131.4"/>
		<path class="st0" d="M11.1,127.4c-0.1-0.1-0.1-0.1-0.2-0.2l-7-7.1c-0.8-0.9-2.3-1-3.2-0.2s-1,2.3-0.2,3.2c0.1,0.1,0.1,0.1,0.2,0.2
			l9.6,9.7l0,0C10.3,133,13.9,130.2,11.1,127.4"/>
		<path class="st0" d="M20.8,127l-0.4-0.2l-0.1-0.1c-0.2-0.1-0.3-0.2-0.5-0.3l-0.2-0.1l-0.1-0.1c-0.3-0.3-0.6-0.6-0.9-0.9l-0.1-0.1
			l-5-5c-0.9-0.9-2.3-0.9-3.2,0c-0.9,0.9-0.9,2.3,0,3.2l5.1,5.1c1.9,1.8,4.9,1.8,6.7-0.1l1.2-1.2c-0.3,0.1-0.6,0.1-0.9,0.1
			C21.9,127.4,21.3,127.3,20.8,127"/>
		<path class="st0" d="M24.8,125.6l0.2-0.2l7.1-7c0.9-0.9,0.9-2.3,0.1-3.2s-2.3-0.9-3.2-0.1c0,0,0,0,0,0l-9.7,9.7l0,0
			C19.1,124.8,22,128.4,24.8,125.6"/>
		<path class="st0" d="M11.8,132.5l0.1-0.2L11.8,132.5"/>
		<path class="st0" d="M11.7,132.6c-0.2,0.3-0.5,0.5-0.7,0.7l-0.2,0.2l0.1-0.1C11.2,133.3,11.5,133,11.7,132.6"/>
		<path class="st0" d="M12.3,131.9l0.1-0.1L12.3,131.9"/>
		<path class="st0" d="M22,118c0,1.7-1.3,3-3,3s-3-1.3-3-3s1.3-3,3-3S22,116.3,22,118"/>
		<path class="st0" d="M15.8,149c0-1.7,1.3-3,3-3c1.7,0,3,1.3,3,3s-1.3,3-3,3c0,0,0,0,0,0C17.1,152,15.8,150.7,15.8,149"/>
		<path class="st0" d="M25.3,135.6l0.2-0.4c0,0,0-0.1,0.1-0.1c0.1-0.2,0.2-0.3,0.3-0.5l0.1-0.2l0.1-0.1c0.3-0.3,0.6-0.6,0.9-0.9
			l0.1-0.1l5-5c0.9-0.9,0.9-2.3,0-3.2c-0.9-0.9-2.3-0.9-3.2,0c0,0,0,0,0,0l-5.1,5.1c-1.8,1.9-1.8,4.9,0.1,6.7l1.2,1.2
			c-0.1-0.3-0.1-0.6-0.1-0.9C24.9,136.7,25,136.1,25.3,135.6"/>
		<path class="st0" d="M26.8,139.6c0.1,0.1,0.1,0.1,0.2,0.2l7,7.1c0.9,0.9,2.3,0.9,3.2,0c0.9-0.9,0.9-2.3,0-3.2l-9.7-9.8l0,0
			C27.5,133.9,23.9,136.8,26.8,139.6"/>
		<path class="st0" d="M17,140l0.4,0.2l0.1,0.1c0.2,0.1,0.3,0.2,0.5,0.3l0.2,0.1l0.1,0.1c0.3,0.3,0.6,0.6,0.9,0.9l0.1,0.1l5,5
			c0.9,0.9,2.3,0.9,3.2,0c0.9-0.9,0.9-2.3,0-3.2c0,0,0,0,0,0l-5.1-5.1c-1.9-1.8-4.9-1.8-6.7,0.1l-1.2,1.2c0.3-0.1,0.6-0.1,0.9-0.1
			C15.9,139.6,16.5,139.7,17,140"/>
		<path class="st0" d="M13,141.4c-0.1,0.1-0.1,0.1-0.2,0.2l-7.1,7c-0.9,0.9-0.9,2.3-0.1,3.2c0.9,0.9,2.3,0.9,3.2,0.1c0,0,0,0,0,0
			l9.8-9.7l0,0C18.7,142.1,15.8,138.5,13,141.4"/>
		<path class="st0" d="M17,140l0.4,0.2l0.1,0.1c0.2,0.1,0.3,0.2,0.5,0.3l0.2,0.1l0.1,0.1c0.3,0.3,0.6,0.6,0.9,0.9l0.1,0.1l5,5
			c0.9,0.9,2.3,0.9,3.2,0c0.9-0.9,0.9-2.3,0-3.2c0,0,0,0,0,0l-5.1-5.1c-1.9-1.8-4.9-1.8-6.7,0.1l-1.2,1.2c0.3-0.1,0.6-0.1,0.9-0.1
			C15.9,139.6,16.5,139.7,17,140"/>
		<g>
			<defs>
				<path id="SVGID_1_" d="M17,140l0.4,0.2l0.1,0.1c0.2,0.1,0.3,0.2,0.5,0.3l0.2,0.1l0.1,0.1c0.3,0.3,0.6,0.6,0.9,0.9l0.1,0.1l5,5
					c0.9,0.9,2.3,0.9,3.2,0c0.9-0.9,0.9-2.3,0-3.2c0,0,0,0,0,0l-5.1-5.1c-1.9-1.8-4.9-1.8-6.7,0.1l-1.2,1.2c0.3-0.1,0.6-0.1,0.9-0.1
					C15.9,139.6,16.5,139.7,17,140"/>
			</defs>
			<use xlink:href="#SVGID_1_"  style="overflow:visible;fill:#231F20;"/>
			<clipPath id="SVGID_2_">
				<use xlink:href="#SVGID_1_"  style="overflow:visible;"/>
			</clipPath>
			<g class="st1">
				<g>
					
						<rect x="12.6" y="133.7" transform="matrix(0.7431 -0.6691 0.6691 0.7431 -89.7542 50.8251)" class="st0" width="17.4" height="17.1"/>
				</g>
			</g>
		</g>
		<path class="st0" d="M25.3,135.6l0.2-0.4c0,0,0-0.1,0.1-0.1c0.1-0.2,0.2-0.3,0.3-0.5l0.1-0.2l0.1-0.1c0.3-0.3,0.6-0.6,0.9-0.9
			l0.1-0.1l5-5c0.9-0.9,0.9-2.3,0-3.2c-0.9-0.9-2.3-0.9-3.2,0c0,0,0,0,0,0l-5.1,5.1c-1.8,1.9-1.8,4.9,0.1,6.7l1.2,1.2
			c-0.1-0.3-0.1-0.6-0.1-0.9C24.9,136.7,25,136.1,25.3,135.6"/>
		<g>
			<defs>
				<path id="SVGID_3_" d="M25.3,135.6l0.2-0.4c0,0,0-0.1,0.1-0.1c0.1-0.2,0.2-0.3,0.3-0.5l0.1-0.2l0.1-0.1c0.3-0.3,0.6-0.6,0.9-0.9
					l0.1-0.1l5-5c0.9-0.9,0.9-2.3,0-3.2c-0.9-0.9-2.3-0.9-3.2,0c0,0,0,0,0,0l-5.1,5.1c-1.8,1.9-1.8,4.9,0.1,6.7l1.2,1.2
					c-0.1-0.3-0.1-0.6-0.1-0.9C24.9,136.7,25,136.1,25.3,135.6"/>
			</defs>
			<use xlink:href="#SVGID_3_"  style="overflow:visible;fill:#231F20;"/>
			<clipPath id="SVGID_4_">
				<use xlink:href="#SVGID_3_"  style="overflow:visible;"/>
			</clipPath>
			<g class="st2">
				<g>
					
						<rect x="19.7" y="122.6" transform="matrix(0.8746 -0.4848 0.4848 0.8746 -60.1598 29.8633)" class="st0" width="16" height="17.3"/>
				</g>
			</g>
		</g>
		<path class="st0" d="M20.8,127l-0.4-0.2l-0.1-0.1c-0.2-0.1-0.3-0.2-0.5-0.3l-0.2-0.1l-0.1-0.1c-0.3-0.3-0.6-0.6-0.9-0.9l-0.1-0.1
			l-5-5c-0.9-0.9-2.3-0.9-3.2,0c-0.9,0.9-0.9,2.3,0,3.2l5.1,5.1c1.9,1.8,4.9,1.8,6.7-0.1l1.2-1.2c-0.3,0.1-0.6,0.1-0.9,0.1
			C21.9,127.4,21.3,127.3,20.8,127"/>
		<g>
			<defs>
				<path id="SVGID_5_" d="M20.8,127l-0.4-0.2l-0.1-0.1c-0.2-0.1-0.3-0.2-0.5-0.3l-0.2-0.1l-0.1-0.1c-0.3-0.3-0.6-0.6-0.9-0.9
					l-0.1-0.1l-5-5c-0.9-0.9-2.3-0.9-3.2,0c-0.9,0.9-0.9,2.3,0,3.2l5.1,5.1c1.9,1.8,4.9,1.8,6.7-0.1l1.2-1.2
					c-0.3,0.1-0.6,0.1-0.9,0.1C21.9,127.4,21.3,127.3,20.8,127"/>
			</defs>
			<use xlink:href="#SVGID_5_"  style="overflow:visible;fill:#231F20;"/>
			<clipPath id="SVGID_6_">
				<use xlink:href="#SVGID_5_"  style="overflow:visible;"/>
			</clipPath>
			<g class="st3">
				<g>
					
						<rect x="11" y="117.6" transform="matrix(1.745241e-02 -0.9998 0.9998 1.745241e-02 -108.4679 138.9181)" class="st0" width="10.8" height="14.1"/>
				</g>
			</g>
		</g>
		<path class="st0" d="M12.5,131.4l-0.2,0.4l-0.1,0.1c-0.1,0.2-0.2,0.3-0.3,0.5l-0.1,0.2l-0.1,0.1c-0.3,0.3-0.6,0.6-0.9,0.9
			l-0.1,0.1l-5,5c-0.9,0.9-0.9,2.3,0,3.2s2.3,0.9,3.2,0c0,0,0,0,0,0l5.1-5.1c1.8-1.9,1.7-4.8-0.1-6.7l-1.2-1.2
			c0.1,0.3,0.1,0.6,0.1,0.9C12.9,130.3,12.8,130.9,12.5,131.4"/>
		<g>
			<defs>
				<path id="SVGID_7_" d="M12.5,131.4l-0.2,0.4l-0.1,0.1c-0.1,0.2-0.2,0.3-0.3,0.5l-0.1,0.2l-0.1,0.1c-0.3,0.3-0.6,0.6-0.9,0.9
					l-0.1,0.1l-5,5c-0.9,0.9-0.9,2.3,0,3.2s2.3,0.9,3.2,0c0,0,0,0,0,0l5.1-5.1c1.8-1.9,1.7-4.8-0.1-6.7l-1.2-1.2
					c0.1,0.3,0.1,0.6,0.1,0.9C12.9,130.3,12.8,130.9,12.5,131.4"/>
			</defs>
			<use xlink:href="#SVGID_7_"  style="overflow:visible;fill:#231F20;"/>
			<clipPath id="SVGID_8_">
				<use xlink:href="#SVGID_7_"  style="overflow:visible;"/>
			</clipPath>
			<g class="st4">
				<g>
					<rect x="4.9" y="128.8" class="st0" width="10.6" height="13.9"/>
				</g>
			</g>
		</g>
	</g>
</g>
</svg>
