<?xml version="1.0" encoding="utf-8"?>
<!-- Generator: Adobe Illustrator 24.1.0, SVG Export Plug-In . SVG Version: 6.00 Build 0)  -->
<svg version="1.1" id="Layer_1" xmlns="http://www.w3.org/2000/svg" xmlns:xlink="http://www.w3.org/1999/xlink" x="0px" y="0px"
	 viewBox="0 0 154.5 38.8" style="enable-background:new 0 0 154.5 38.8;" xml:space="preserve">
<style type="text/css">
	.st0{fill:#FFFFFF;}
	.st1{clip-path:url(#SVGID_2_);}
	.st2{clip-path:url(#SVGID_4_);}
	.st3{clip-path:url(#SVGID_6_);}
	.st4{clip-path:url(#SVGID_8_);}
</style>
<g id="Layer_2_1_">
	<g id="_01_-_Hero">
		<path class="st0" d="M59.2,30.9h5.1V20.3c0-3.2-0.3-5.7-1.8-7.6c-1.3-1.7-3.3-2.7-5.4-2.6c-2.5,0-4.8,1.2-6.3,3.2l-0.4,0.6
			L50.1,12c-0.1-0.8-0.9-1.5-1.7-1.5h-2.8v20.4h5.1V17.2v-0.1c1-1.7,2.8-2.8,4.8-2.8c1.3-0.1,2.5,0.5,3.1,1.6
			c0.6,1.5,0.8,3.1,0.7,4.6L59.2,30.9z"/>
		<path class="st0" d="M77.4,10c-5.8-0.1-10.6,4.4-10.7,10.2c0,0.2,0,0.3,0,0.5c0.2,5.9,5.1,10.6,11,10.4
			c5.7-0.2,10.2-4.7,10.4-10.4c0.1-5.8-4.4-10.5-10.2-10.7C77.7,10,77.6,10,77.4,10 M77.4,27.1c-3.2,0-5.6-2.7-5.6-6.4
			s2.3-6.4,5.6-6.4s5.5,2.7,5.5,6.4S80.6,27.1,77.4,27.1"/>
		<path class="st0" d="M101.2,10c-5.8-0.1-10.6,4.4-10.7,10.2c0,0.2,0,0.3,0,0.5c-0.1,5.8,4.5,10.6,10.2,10.7c0.2,0,0.3,0,0.5,0
			c5.7,0.2,10.5-4.3,10.7-10.1c0-0.1,0-0.2,0-0.3V1.5h-3.6c-0.8,0-1.5,0.7-1.5,1.5l0,0v6l-0.1,2.3l-0.5-0.2
			C104.6,10.4,102.9,10,101.2,10 M101.2,27.1c-3.2,0-5.5-2.7-5.5-6.4s2.3-6.4,5.5-6.4c3.2,0,5.5,2.7,5.5,6.4S104.3,27.1,101.2,27.1"
			/>
		<path class="st0" d="M125.3,10c-5.8-0.1-10.6,4.4-10.7,10.2c0,0.2,0,0.3,0,0.5c-0.1,5.8,4.5,10.6,10.2,10.7c0.2,0,0.3,0,0.5,0
			c5.8,0.1,10.6-4.5,10.7-10.2c0-0.2,0-0.3,0-0.5c0.1-5.8-4.4-10.5-10.2-10.7C125.6,10,125.5,10,125.3,10 M125.3,27.1
			c-3.2,0-5.6-2.7-5.6-6.4s2.3-6.4,5.5-6.4c3.2,0,5.5,2.7,5.5,6.4S128.5,27.1,125.3,27.1"/>
		<path class="st0" d="M137.2,28.1c2.1,2.1,5,3.3,8,3.3c3.9,0,7.8-2,7.8-6.5c0-3.7-3.1-5-5.8-6.1h-0.1c-1.7-0.7-3.5-1.4-3.5-3
			c0.1-1.1,1.1-2,2.2-1.9h0.1c1.1,0,2.1,0.3,3,0.8c0.7,0.4,1.6,0.2,2.2-0.3l1.6-1.9c-1.9-1.7-4.3-2.5-6.8-2.5
			c-3.5,0-7.2,1.9-7.2,6.1c0,3.4,2.5,4.8,5.1,5.9l0.7,0.3c1.9,0.8,3.5,1.5,3.5,3c0,1.5-1.6,2.2-3,2.2c-1.4,0-2.7-0.5-3.8-1.3
			c-0.7-0.5-1.7-0.4-2.3,0.2L137.2,28.1z"/>
		<path class="st0" d="M22.5,3.9c0,1.7-1.3,3-3,3s-3-1.3-3-3s1.3-3,3-3S22.5,2.2,22.5,3.9"/>
		<path class="st0" d="M16.4,34.9c0-1.7,1.3-3,3-3s3,1.3,3,3c0,1.7-1.3,3-3,3S16.4,36.5,16.4,34.9"/>
		<path class="st0" d="M25.6,11.6c0.1-0.1,0.1-0.1,0.2-0.2l7.1-7c0.9-0.8,1-2.3,0.2-3.2s-2.3-1-3.2-0.2c-0.1,0.1-0.1,0.1-0.2,0.2
			L20,10.8l0,0C20,10.8,22.8,14.4,25.6,11.6"/>
		<path class="st0" d="M21.6,13l-0.4-0.2l-0.1-0.1c-0.2-0.1-0.3-0.2-0.5-0.3l-0.2-0.1l-0.1-0.1c-0.3-0.3-0.6-0.6-0.9-0.9l-0.1-0.1
			l-5-5c-0.9-0.9-2.3-0.9-3.2,0s-0.9,2.3,0,3.2l0,0l5.1,5.1c1.9,1.8,4.8,1.7,6.7-0.1l1.2-1.2c-0.3,0.1-0.6,0.1-0.9,0.1
			C22.7,13.4,22.1,13.3,21.6,13"/>
		<path class="st0" d="M25.6,11.6c0.1-0.1,0.1-0.1,0.2-0.2l7.1-7c0.9-0.8,1-2.3,0.2-3.2s-2.3-1-3.2-0.2c-0.1,0.1-0.1,0.1-0.2,0.2
			L20,10.8l0,0C20,10.8,22.8,14.4,25.6,11.6"/>
		<path class="st0" d="M26,21.3l0.2-0.4l0.1-0.1c0.1-0.2,0.2-0.3,0.3-0.5l0.1-0.2l0.1-0.1c0.3-0.3,0.6-0.6,0.9-0.9l0.1-0.1l5-5
			c0.9-0.9,0.9-2.3,0-3.2c-0.9-0.9-2.3-0.9-3.2,0l-5.1,5.1c-1.8,1.9-1.8,4.9,0.1,6.7l1.2,1.2c-0.1-0.3-0.1-0.6-0.1-0.9
			C25.6,22.4,25.7,21.8,26,21.3"/>
		<path class="st0" d="M27.4,25.3l0.2,0.2l7,7.1c0.9,0.9,2.3,0.9,3.2,0.1s0.9-2.3,0.1-3.2l0,0l-9.7-9.7l0,0
			C28.2,19.6,24.6,22.5,27.4,25.3"/>
		<path class="st0" d="M20.5,12.3l0.2,0.1L20.5,12.3"/>
		<path class="st0" d="M20.4,12.2c-0.3-0.2-0.5-0.5-0.7-0.7l-0.2-0.2l0.1,0.1C19.7,11.7,20,12,20.4,12.2"/>
		<path class="st0" d="M21.1,12.8l0.1,0.1L21.1,12.8"/>
		<path class="st0" d="M35,22.5c-1.7,0-3-1.3-3-3c0-1.7,1.3-3,3-3s3,1.3,3,3C38,21.2,36.7,22.5,35,22.5"/>
		<path class="st0" d="M4,16.3c1.7,0,3,1.3,3,3s-1.3,3-3,3s-3-1.3-3-3l0,0C1,17.6,2.3,16.3,4,16.3"/>
		<path class="st0" d="M17.4,25.8l0.4,0.2c0,0,0.1,0,0.1,0.1c0.2,0.1,0.3,0.2,0.5,0.3l0.2,0.1l0.1,0.1c0.3,0.3,0.6,0.6,0.9,0.9
			l0.1,0.1l5,5c0.9,0.9,2.3,0.9,3.2,0c0.9-0.9,0.9-2.3,0-3.2l0,0l-5.1-5.1c-1.9-1.8-4.9-1.8-6.7,0.1l-1.2,1.2
			c0.3-0.1,0.6-0.1,0.9-0.1C16.3,25.4,16.9,25.5,17.4,25.8"/>
		<path class="st0" d="M13.4,27.3c-0.1,0.1-0.1,0.1-0.2,0.2l-7.1,7c-0.9,0.9-0.9,2.3,0,3.2s2.3,0.9,3.2,0l9.8-9.7l0,0
			C19.1,28,16.2,24.4,13.4,27.3"/>
		<path class="st0" d="M13,17.5l-0.2,0.4L12.7,18c-0.1,0.2-0.2,0.3-0.3,0.5l-0.1,0.2l-0.1,0.1c-0.3,0.3-0.6,0.6-0.9,0.9l-0.1,0.1
			l-5,5c-0.9,0.9-0.9,2.3,0,3.2c0.9,0.9,2.3,0.9,3.2,0l0,0l5.1-5.1c1.8-1.9,1.8-4.9-0.1-6.7L13.2,15c0.1,0.3,0.1,0.6,0.1,0.9
			C13.4,16.4,13.3,17,13,17.5"/>
		<path class="st0" d="M11.6,13.5c-0.1-0.1-0.1-0.1-0.2-0.2l-7-7.1C3.5,5.3,2.1,5.3,1.2,6.1C0.3,7,0.3,8.4,1.1,9.3l0,0l9.7,9.8l0,0
			C10.9,19.2,14.5,16.3,11.6,13.5"/>
		<path class="st0" d="M13,17.5l-0.2,0.4L12.7,18c-0.1,0.2-0.2,0.3-0.3,0.5l-0.1,0.2l-0.1,0.1c-0.3,0.3-0.6,0.6-0.9,0.9l-0.1,0.1
			l-5,5c-0.9,0.9-0.9,2.3,0,3.2c0.9,0.9,2.3,0.9,3.2,0l0,0l5.1-5.1c1.8-1.9,1.8-4.9-0.1-6.7L13.2,15c0.1,0.3,0.1,0.6,0.1,0.9
			C13.4,16.4,13.3,17,13,17.5"/>
		<g>
			<g>
				<defs>
					<path id="SVGID_1_" d="M13,17.5l-0.2,0.4L12.7,18c-0.1,0.2-0.2,0.3-0.3,0.5l-0.1,0.2l-0.1,0.1c-0.3,0.3-0.6,0.6-0.9,0.9
						l-0.1,0.1l-5,5c-0.9,0.9-0.9,2.3,0,3.2c0.9,0.9,2.3,0.9,3.2,0l0,0l5.1-5.1c1.8-1.9,1.8-4.9-0.1-6.7L13.2,15
						c0.1,0.3,0.1,0.6,0.1,0.9C13.4,16.4,13.3,17,13,17.5"/>
				</defs>
				<clipPath id="SVGID_2_">
					<use xlink:href="#SVGID_1_"  style="overflow:visible;"/>
				</clipPath>
				<g class="st1">
					<g>
						
							<rect x="2.2" y="13" transform="matrix(0.7431 -0.6691 0.6691 0.7431 -11.7846 12.7624)" class="st0" width="17.1" height="17.4"/>
					</g>
				</g>
			</g>
		</g>
		<path class="st0" d="M17.4,25.8l0.4,0.2c0,0,0.1,0,0.1,0.1c0.2,0.1,0.3,0.2,0.5,0.3l0.2,0.1l0.1,0.1c0.3,0.3,0.6,0.6,0.9,0.9
			l0.1,0.1l5,5c0.9,0.9,2.3,0.9,3.2,0c0.9-0.9,0.9-2.3,0-3.2l0,0l-5.1-5.1c-1.9-1.8-4.9-1.8-6.7,0.1l-1.2,1.2
			c0.3-0.1,0.6-0.1,0.9-0.1C16.3,25.4,16.9,25.5,17.4,25.8"/>
		<g>
			<g>
				<defs>
					<path id="SVGID_3_" d="M17.4,25.8l0.4,0.2c0,0,0.1,0,0.1,0.1c0.2,0.1,0.3,0.2,0.5,0.3l0.2,0.1l0.1,0.1c0.3,0.3,0.6,0.6,0.9,0.9
						l0.1,0.1l5,5c0.9,0.9,2.3,0.9,3.2,0c0.9-0.9,0.9-2.3,0-3.2l0,0l-5.1-5.1c-1.9-1.8-4.9-1.8-6.7,0.1l-1.2,1.2
						c0.3-0.1,0.6-0.1,0.9-0.1C16.3,25.4,16.9,25.5,17.4,25.8"/>
				</defs>
				<clipPath id="SVGID_4_">
					<use xlink:href="#SVGID_3_"  style="overflow:visible;"/>
				</clipPath>
				<g class="st2">
					<g>
						
							<rect x="13.1" y="20.2" transform="matrix(0.8746 -0.4848 0.4848 0.8746 -10.9278 14.094)" class="st0" width="17.3" height="16"/>
					</g>
				</g>
			</g>
		</g>
		<path class="st0" d="M26,21.3l0.2-0.4l0.1-0.1c0.1-0.2,0.2-0.3,0.3-0.5l0.1-0.2l0.1-0.1c0.3-0.3,0.6-0.6,0.9-0.9l0.1-0.1l5-5
			c0.9-0.9,0.9-2.3,0-3.2c-0.9-0.9-2.3-0.9-3.2,0l-5.1,5.1c-1.8,1.9-1.8,4.9,0.1,6.7l1.2,1.2c-0.1-0.3-0.1-0.6-0.1-0.9
			C25.6,22.4,25.7,21.8,26,21.3"/>
		<g>
			<g>
				<defs>
					<path id="SVGID_5_" d="M26,21.3l0.2-0.4l0.1-0.1c0.1-0.2,0.2-0.3,0.3-0.5l0.1-0.2l0.1-0.1c0.3-0.3,0.6-0.6,0.9-0.9l0.1-0.1l5-5
						c0.9-0.9,0.9-2.3,0-3.2c-0.9-0.9-2.3-0.9-3.2,0l-5.1,5.1c-1.8,1.9-1.8,4.9,0.1,6.7l1.2,1.2c-0.1-0.3-0.1-0.6-0.1-0.9
						C25.6,22.4,25.7,21.8,26,21.3"/>
				</defs>
				<clipPath id="SVGID_6_">
					<use xlink:href="#SVGID_5_"  style="overflow:visible;"/>
				</clipPath>
				<g class="st3">
					<g>
						
							<rect x="21.3" y="11.5" transform="matrix(1.745325e-02 -0.9998 0.9998 1.745325e-02 10.9007 44.9349)" class="st0" width="14.1" height="10.8"/>
					</g>
				</g>
			</g>
		</g>
		<path class="st0" d="M21.6,13l-0.4-0.2l-0.1-0.1c-0.2-0.1-0.3-0.2-0.5-0.3l-0.2-0.1l-0.1-0.1c-0.3-0.3-0.6-0.6-0.9-0.9l-0.1-0.1
			l-5-5c-0.9-0.9-2.3-0.9-3.2,0s-0.9,2.3,0,3.2l0,0l5.1,5.1c1.9,1.8,4.8,1.7,6.7-0.1l1.2-1.2c-0.3,0.1-0.6,0.1-0.9,0.1
			C22.7,13.4,22.1,13.3,21.6,13"/>
		<g>
			<g>
				<defs>
					<path id="SVGID_7_" d="M21.6,13l-0.4-0.2l-0.1-0.1c-0.2-0.1-0.3-0.2-0.5-0.3l-0.2-0.1l-0.1-0.1c-0.3-0.3-0.6-0.6-0.9-0.9
						l-0.1-0.1l-5-5c-0.9-0.9-2.3-0.9-3.2,0s-0.9,2.3,0,3.2l0,0l5.1,5.1c1.9,1.8,4.8,1.7,6.7-0.1l1.2-1.2c-0.3,0.1-0.6,0.1-0.9,0.1
						C22.7,13.4,22.1,13.3,21.6,13"/>
				</defs>
				<clipPath id="SVGID_8_">
					<use xlink:href="#SVGID_7_"  style="overflow:visible;"/>
				</clipPath>
				<g class="st4">
					<g>
						<rect x="10.3" y="5.4" class="st0" width="13.9" height="10.6"/>
					</g>
				</g>
			</g>
		</g>
	</g>
</g>
</svg>
